/* XPM */
static char *Walk_1__resized[] = {
/* columns rows colors chars-per-pixel */
"51 54 236 2 ",
"   c None",
".  c #060E0E",
"X  c #000605",
"o  c #051414",
"O  c #091111",
"+  c #081718",
"@  c #141B1B",
"#  c #191E1E",
"$  c #121716",
"%  c #06100F",
"&  c #261D1B",
"*  c #381B16",
"=  c #1B201D",
"-  c #25221D",
";  c #36241C",
":  c #191F20",
">  c #341D21",
",  c #381E22",
"<  c #291E20",
"1  c #1D2424",
"2  c #292928",
"3  c #3A2D23",
"4  c #362624",
"5  c #2C3234",
"6  c #353A3B",
"7  c #393D3F",
"8  c #333637",
"9  c #392F2A",
"0  c #57261E",
"q  c #52361D",
"w  c #412427",
"e  c #572828",
"r  c #493827",
"t  c #573929",
"y  c #582B38",
"u  c #45383C",
"i  c #5A3637",
"p  c #4E2930",
"a  c #672A28",
"s  c #75232B",
"d  c #673627",
"f  c #78372A",
"g  c #762B37",
"h  c #6B3238",
"j  c #572121",
"k  c #68492C",
"l  c #7A4C2C",
"z  c #7C5332",
"x  c #6F4E33",
"c  c #44403C",
"v  c #3A3F40",
"b  c #7A3948",
"n  c #433F41",
"m  c #3E4344",
"M  c #414546",
"N  c #434749",
"B  c #45484A",
"V  c #494A49",
"C  c #4A4D51",
"Z  c #4E5153",
"A  c #505355",
"S  c #575A5D",
"D  c #534C4B",
"F  c #735552",
"G  c #595D61",
"H  c #5D6468",
"J  c #65676B",
"K  c #6C6E72",
"L  c #77777A",
"P  c #736D71",
"I  c #7A6A5F",
"U  c #983B2A",
"Y  c #8C3232",
"T  c #A82E3C",
"R  c #855637",
"E  c #955F37",
"W  c #954837",
"Q  c #A6412E",
"!  c #BB4536",
"~  c #B14B33",
"^  c #9A643B",
"/  c #986237",
"(  c #A7693C",
")  c #B96F3E",
"_  c #D3482B",
"`  c #C94936",
"'  c #D24B34",
"]  c #D54B34",
"[  c #CD5239",
"{  c #D55236",
"}  c #D4543B",
"|  c #D95A39",
" . c #D64E2F",
".. c #DA643D",
"X. c #C8793F",
"o. c #CE693B",
"O. c #E1693D",
"+. c #E6723F",
"@. c #843A4A",
"#. c #96394B",
"$. c #943C51",
"%. c #A93C47",
"&. c #B83445",
"*. c #AD374C",
"=. c #C63649",
"-. c #D83649",
";. c #CE3A50",
":. c #E1374B",
">. c #974452",
",. c #90594F",
"<. c #A64449",
"1. c #B34646",
"2. c #A14E56",
"3. c #AF5349",
"4. c #BC7343",
"5. c #B56455",
"6. c #A76A49",
"7. c #AF576C",
"8. c #85777B",
"9. c #956D66",
"0. c #8D6B53",
"q. c #C85645",
"w. c #D45945",
"e. c #CA4D5C",
"r. c #DA6743",
"t. c #C47A44",
"y. c #CA7B46",
"u. c #D77B4A",
"i. c #D66856",
"p. c #C76F56",
"a. c #E47745",
"s. c #E06D40",
"d. c #D85567",
"f. c #E45465",
"g. c #E95567",
"h. c #DA7868",
"j. c #C8746D",
"k. c #E07A60",
"l. c #DB864A",
"z. c #DE8749",
"x. c #D5814D",
"c. c #ED8D4C",
"v. c #E5864B",
"b. c #EF914F",
"n. c #F2924D",
"m. c #FA954D",
"M. c #E98856",
"N. c #EE9251",
"B. c #ED965A",
"V. c #EA975D",
"C. c #F29452",
"Z. c #FD9A52",
"A. c #F59958",
"S. c #F18B49",
"D. c #D38B73",
"F. c #EF9D67",
"G. c #F59D61",
"H. c #E6877A",
"J. c #E89A78",
"K. c #F1A36E",
"L. c #FCA061",
"P. c #F3A978",
"I. c #7C7E82",
"U. c #807F83",
"Y. c #CC7A86",
"T. c #7B8082",
"R. c #8A898D",
"E. c #868589",
"W. c #8C8D91",
"Q. c #98969A",
"!. c #96959B",
"~. c #958889",
"^. c #B39394",
"/. c #9D9BA1",
"(. c #A79CA2",
"). c #9FA2A8",
"_. c #A8A6AB",
"`. c #B5AEB2",
"'. c #B8B4B9",
"]. c #BDA3A5",
"[. c #CE918E",
"{. c #ED8C9A",
"}. c #E08E9D",
"|. c #F18E9C",
" X c #E5928C",
".X c #D6A89A",
"XX c #F0AE83",
"oX c #F4B38A",
"OX c #F6BA97",
"+X c #E9A996",
"@X c #CFABAD",
"#X c #E6ACA8",
"$X c #E6B7A8",
"%X c #E9B7B5",
"&X c #F1B7B3",
"*X c #E591A1",
"=X c #F2C3A9",
"-X c #F2CAB9",
";X c #BFBFC5",
":X c #C4BDC3",
">X c #E4BFC0",
",X c #CAC5CB",
"<X c #CEC9CF",
"1X c #C4C2C8",
"2X c #D3CDD3",
"3X c #DBD5DB",
"4X c #D8D3D8",
"5X c #D4C3C9",
"6X c #EDC7C9",
"7X c #F1C5CC",
"8X c #F5D6C9",
"9X c #ECCBD2",
"0X c #F6C8D2",
"qX c #EEDBDE",
"wX c #E7D7D6",
"eX c #F2DDDB",
"rX c #F3D9D6",
"tX c #F3E0DD",
"yX c #DED9E0",
"uX c #E2DBE2",
"iX c #EEDDE2",
"pX c #F1DCE0",
"aX c #ECE4EB",
"sX c #E8E5EB",
"dX c #F2E6ED",
"fX c #F2E9EF",
"gX c #F1E2E5",
"hX c #F3EBF2",
"jX c #F9EDF4",
"kX c #F5EFF8",
"lX c #F8F0F7",
"zX c #F4F4FC",
"xX c #FBF2FA",
"cX c #FCFAFF",
"vX c #F7F8FE",
"bX c #ECE9F1",
/* pixels */
"      @ @ @ + O O O O O O O . O O . . O O O O O O O % % O                                             ",
"      @ @ @ # 2 1 1 1 1 1 1 1 1 1 2 1 1 1 1 1 1 1 1 1 2 1                                             ",
"      @ @ 1 8 B A S A A A A A A A A Z A Z A A Z A A A Z N                                             ",
"      O # 8 S E.Q.Q.Q.Q.Q.Q.Q.Q.Q.Q.Q.Q.Q.Q.Q.Q.Q.Q.Q.R.K 7 + X . % . % .                             ",
"      O 1 m I.'.3XuX3X3X3X3X3X3X4X3X3X3X3X3X3X3X3XwX3X1XR.C 1 $ @ : : : : :                           ",
"      . @ B R.2XxXxXxXjXhXlXhXkXlXhXlXjXjXhXkXjXzXxXlX3X_.P C m M N N B B M 6                         ",
"      . # B W.4XxXcXxXxXxXlXlXlXlXlXxXlXxXlXlXxXxXcXxXsX1X_.R.E.E.R.W.W.E.L A 2                       ",
"      . = N R.<XhXxXjXhXhXhXhXhXhXhXhXhXhXhXhXhXhXhXhXaXqX4X2X<X2X2X2X2X,X_.J 5 $                     ",
"      . : N R.2XhXxXhXhXfXhXbXhXhXhXhXhXhXfXhXbXhXfXfXhXhXhXhXhXhXhXjXxXdX:XE.A 6 5                   ",
"      . : N R.2XxXcXjXfXhXfXhXfXhXhXaXfXdXhXhXhXfXhXhXhXhXkXlXxXlXzXcXxXjX3X`.R.K Z 2                 ",
"      . : N R.<XhXxXjXhXfXhXfXhXdXhXfXhXhXhXhXhXhXhXfXfXhXhXhXhXhXjXjXhXhXsX3X,X_.J 6 @               ",
"      . : M 8.'.3XsXaXhXhXhXhXbXbXhXhXhXhXbXbXbXhXfXhXhXhXhXhXhXhXhXbXhXhXhXlXdX,XR.A 5 2             ",
"        1 7 J E.(.;XuXkXxXhXhXfXhXhXhXhXkXkXkXzXkXkXkXkXhXhXhXfXbXhXhXdXhXjXxXjX3X`.E.J A 6           ",
"            6 N J Q.2XkXxXlXhXfXdXhXhXhXhXjXhXhXbXkXhXhXhXhXfXhXhXdXfXhXbXhXjXhXsX3X1X_.L M =         ",
"            + 1 m L '.3XaXhXhXhXhXhXaXgXiXqXiXiXiXiXiXiXgXdXhXhXhXhXhXbXhXhXhXhXhXjXaX,XR.M = .       ",
"              . 5 S E._.1X3XhXzXzXhXpX6X%X#X#X#X#X#X#X%X6XiXaXhXhXhXdXhXhXhXhXhXjXcXxX2XR.B @ %       ",
"                  6 C J !.,XfXcXzXdX9X+XH.D.k.h.h.h.h. X#X6XaXhXhXbXhXfXbXhXhXfXlXcXjX2XR.M = .       ",
"                  @ 2 u L `.qXfXhXqX%XD.q. .' } } ' } i. X6XaXzXhXfXhXhXhXfXfXhXhXlXhX<XR.N : .       ",
"                  * * d ,.^.$X6X-X%X[.5.Q U ~ [ { _ _ w.H.6XfXvXxXlXhXhXhXfXhXbXhXxXhX<XR.N = .       ",
"              @ & 0 f U 3.j.H.H. Xj.5.>.0 d E o.O.| _ |  X6XjXcXcXkXkXkXhXfXfXhXhXlXjX<XR.B @ %       ",
"              @ ; d Q ! [ [ [ w.} q.W t w t / x.a.s.| i. X%XsXaXsXsXsXbXfXfXfXhXjXlXjX<XR.N # %       ",
"            + @ 4 f ~ |  .Q Q U U U Y d t k ( l.C.M.k.j.[.(.'.'.'.'.,XyXfXlXlXfXlXxXhX2XR.N = %       ",
"            + @ 4 l ) o.~ f q q j 0 f l / ( x.z.G.XX+X.X^.8.K H J L !.,XsXcXvXfXhXcXlX2XR.B = %       ",
"            o @ 3 z 4.u.( k ; = & ; t E X.l.v.c.F.OX-X5XQ.G 8 2 2 v K _.wXfXhXfXhXxXfX<XE.B : %       ",
"            o $ 3 z X.l.( k r 1 @ : t ^ z.m.n.C.K.&XtX3X(.F r - ; r F W.'.4XsXsXaXuX<X_.L M #         ",
"            % O ; l X.z.l.( z r 1 1 r ^ z.m.m.n.K.=XtXwX@X9.R l z z F I U./.1XyX3X'.W.L S 7           ",
"            o @ 3 z t.z.b.z.t.z r - r ^ z.n.n.n.K.=XrXeX=XD.X.X.x.) ^ x c J _.4X<XQ.S 6 5             ",
"            5 v V 0.D.F.G.A.z.( x r k ( l.n.n.C.K.=XrXeX-XP.m.m.n.c.^ t 3 Z Q.4X:XE.7 @ .             ",
"          v G L ~.^..XOXP.L.c.X./ R / t.v.n.c.n.K.=XtXtX-XP.A.Z.Z.b.( q = N !.4X,XL 6 O X             ",
"        : M I._.5X4X8X-XOXK.b.z.x.X.x.l.b.b.c.n.K.=XeXqX=XXXC.m.n.c.( q 2 C !.2X,XE.7 @ .             ",
"      % : N E.<XfXzXhXtX-XoXF.B.N.b.b.b.b.b.c.b.F.$X-X6X$XF.b.c.S.v.( x u G !.;X'.L 7 @               ",
"      % : N W.4XcXcXvXaXrX=XoXP.G.C.n.b.n.n.c.b.V.J.+X+XJ.z.z.+.+.u.p.9.8.T.R.R.E.J 6                 ",
"      % : N R.2XkXvXkXfXgXrX6XOXP.A.b.n.b.b.n.b.N.M.k.i.i.r.| | | r.h.[.`._.L S C 7                   ",
"      % = M E.5XgXjXfXfXhXhXtX-XP.B.c.c.b.b.N.b.v.u.w.} ` ' ] ' ' } h.@X5X_.K 6 =                     ",
"      O = u I [.&XrXgXkXzXzXaX-XXXB.S.c.b.C.C.b.c...{ _ _ _ ' _ _ } p.^.(.R.H 2                       ",
"      + = w F p. X&XeXhXzXzXaX8XXXA.c.c.b.n.C.n.v.O.{ ' ` ' ' ' ] ' 3.,.J G m                         ",
"      + # 4 f ~ p.[.6XaXhXhXtX-XXXA.c.c.b.n.n.b.v.O.| ' ' ' ' ' ' ` U t 4 1                           ",
"        # ; 0 Y ~ D.$X8X8X8X-XOXK.B.b.n.b.M.S.a.a...} ' ' ' _ ! Q Y a ; $ o o                         ",
"          > * 0 x 6.D.oXOXOXoXP.G.C.n.n.C.S.a.s.| | ] ' ] ] ` Q f e ; & O o + o                       ",
"            @ & r z x.V.A.B.V.B.N.N.N.N.N.a.s.| { ] ' ' ' ' ! U 0 ; - # # # # # #                     ",
"              @ 2 x / ) ) ) ) t.u.u.x.a.a.a.O.{ ` ` ` 1.` ! ~ Y y 5 < 5 < < , , w 4                   ",
"                  r k k k k x z ,.5.p.r.r.r.| { ` ` 1.%.<.<.<.b b y y y y b b Y s e <                 ",
"                  2 ; 4 2 ; 3 i b >.1.q.} } ] ' ` 1.%.>.$.>.>.>.@.b b b @.$.*.&.%.s > :               ",
"                  > > , ; ; w y @.$.*.&.` ! ! Q Q <.2.2.2.2.>.>.@.@.$.$.$.*.;.-.&.Y j , <             ",
"                < j s s s Y s Y T *.*.*.%.U Y f Y >.6.p.p.p.5.>.b y b #.*.;.:.:.-.T Y s e ,           ",
"              : > e T =.&.T &.=.=.;.=.*.#.b y w r R t.u.M.M.y.E y 9 p #.=.:.:.:.-.-.&.#.s , :         ",
"            + @ , b *.g.g.g.f.f.f.f.d.7.7.F u < 3 z t.c.Z.C.l./ u < p #.d.g.g.f.:.g.f.e.@.4 : +       ",
"            o @ 4 F Y.|.|.|.|.Y.*X*X*X}.Y.U.C 2 3 z y.n.Z.Z.z./ r 2 u 2.Y.|.|.{.|.|.{.Y.,.u # o       ",
"            o : 6 P ].7X0X0X7X7X7X7X9X9X>X(.G 8 3 z t.b.Z.m.l.E t 2 C ~.>X0X0X7X7X0X9X@X8.n : O       ",
"              : v L :XgXjXdXdXdXdXdXhXjXuX;XK v 3 z X.b.Z.C.l./ t 2 S /.wXhXjXaXhXjXdX5XE.B : %       ",
"              @ m I.1XzXcXcXzXzXzXzXvXcXkX;XI.5 3 l t.N.Z.Z.l.E r 2 G ).sXvXxXzXvXcXvX2XW.B :         ",
"                                                                                                      ",
"                                                                                                      ",
"                                                                                                      "
};
