/* XPM */
static char *Walk_2__resized[] = {
/* columns rows colors chars-per-pixel */
"51 54 236 2 ",
"   c None",
".  c #060E0E",
"X  c #000605",
"o  c #051414",
"O  c #091111",
"+  c #081718",
"@  c #141B1B",
"#  c #191E1E",
"$  c #121716",
"%  c #06100F",
"&  c #261D1B",
"*  c #381B16",
"=  c #1B201D",
"-  c #25221D",
";  c #36241C",
":  c #191F20",
">  c #341D21",
",  c #381E22",
"<  c #291E20",
"1  c #1D2424",
"2  c #292928",
"3  c #3A2D23",
"4  c #362624",
"5  c #2C3234",
"6  c #353A3B",
"7  c #393D3F",
"8  c #333637",
"9  c #392F2A",
"0  c #57261E",
"q  c #52361D",
"w  c #412427",
"e  c #572828",
"r  c #493827",
"t  c #573929",
"y  c #582B38",
"u  c #45383C",
"i  c #5A3637",
"p  c #4E2930",
"a  c #672A28",
"s  c #75232B",
"d  c #673627",
"f  c #78372A",
"g  c #762B37",
"h  c #6B3238",
"j  c #572121",
"k  c #68492C",
"l  c #7A4C2C",
"z  c #7C5332",
"x  c #6F4E33",
"c  c #44403C",
"v  c #3A3F40",
"b  c #7A3948",
"n  c #433F41",
"m  c #3E4344",
"M  c #414546",
"N  c #434749",
"B  c #45484A",
"V  c #494A49",
"C  c #4A4D51",
"Z  c #4E5153",
"A  c #505355",
"S  c #575A5D",
"D  c #534C4B",
"F  c #735552",
"G  c #595D61",
"H  c #5D6468",
"J  c #65676B",
"K  c #6C6E72",
"L  c #77777A",
"P  c #736D71",
"I  c #7A6A5F",
"U  c #983B2A",
"Y  c #8C3232",
"T  c #A82E3C",
"R  c #855637",
"E  c #955F37",
"W  c #954837",
"Q  c #A6412E",
"!  c #BB4536",
"~  c #B14B33",
"^  c #9A643B",
"/  c #986237",
"(  c #A7693C",
")  c #B96F3E",
"_  c #D3482B",
"`  c #C94936",
"'  c #D24B34",
"]  c #D54B34",
"[  c #CD5239",
"{  c #D55236",
"}  c #D4543B",
"|  c #D95A39",
" . c #D64E2F",
".. c #DA643D",
"X. c #C8793F",
"o. c #CE693B",
"O. c #E1693D",
"+. c #E6723F",
"@. c #843A4A",
"#. c #96394B",
"$. c #943C51",
"%. c #A93C47",
"&. c #B83445",
"*. c #AD374C",
"=. c #C63649",
"-. c #D83649",
";. c #CE3A50",
":. c #E1374B",
">. c #974452",
",. c #90594F",
"<. c #A64449",
"1. c #B34646",
"2. c #A14E56",
"3. c #AF5349",
"4. c #BC7343",
"5. c #B56455",
"6. c #A76A49",
"7. c #AF576C",
"8. c #85777B",
"9. c #956D66",
"0. c #8D6B53",
"q. c #C85645",
"w. c #D45945",
"e. c #CA4D5C",
"r. c #DA6743",
"t. c #C47A44",
"y. c #CA7B46",
"u. c #D77B4A",
"i. c #D66856",
"p. c #C76F56",
"a. c #E47745",
"s. c #E06D40",
"d. c #D85567",
"f. c #E45465",
"g. c #E95567",
"h. c #DA7868",
"j. c #C8746D",
"k. c #E07A60",
"l. c #DB864A",
"z. c #DE8749",
"x. c #D5814D",
"c. c #ED8D4C",
"v. c #E5864B",
"b. c #EF914F",
"n. c #F2924D",
"m. c #FA954D",
"M. c #E98856",
"N. c #EE9251",
"B. c #ED965A",
"V. c #EA975D",
"C. c #F29452",
"Z. c #FD9A52",
"A. c #F59958",
"S. c #F18B49",
"D. c #D38B73",
"F. c #EF9D67",
"G. c #F59D61",
"H. c #E6877A",
"J. c #E89A78",
"K. c #F1A36E",
"L. c #FCA061",
"P. c #F3A978",
"I. c #7C7E82",
"U. c #807F83",
"Y. c #CC7A86",
"T. c #7B8082",
"R. c #8A898D",
"E. c #868589",
"W. c #8C8D91",
"Q. c #98969A",
"!. c #96959B",
"~. c #958889",
"^. c #B39394",
"/. c #9D9BA1",
"(. c #A79CA2",
"). c #9FA2A8",
"_. c #A8A6AB",
"`. c #B5AEB2",
"'. c #B8B4B9",
"]. c #BDA3A5",
"[. c #CE918E",
"{. c #ED8C9A",
"}. c #E08E9D",
"|. c #F18E9C",
" X c #E5928C",
".X c #D6A89A",
"XX c #F0AE83",
"oX c #F4B38A",
"OX c #F6BA97",
"+X c #E9A996",
"@X c #CFABAD",
"#X c #E6ACA8",
"$X c #E6B7A8",
"%X c #E9B7B5",
"&X c #F1B7B3",
"*X c #E591A1",
"=X c #F2C3A9",
"-X c #F2CAB9",
";X c #BFBFC5",
":X c #C4BDC3",
">X c #E4BFC0",
",X c #CAC5CB",
"<X c #CEC9CF",
"1X c #C4C2C8",
"2X c #D3CDD3",
"3X c #DBD5DB",
"4X c #D8D3D8",
"5X c #D4C3C9",
"6X c #EDC7C9",
"7X c #F1C5CC",
"8X c #F5D6C9",
"9X c #ECCBD2",
"0X c #F6C8D2",
"qX c #EEDBDE",
"wX c #E7D7D6",
"eX c #F2DDDB",
"rX c #F3D9D6",
"tX c #F3E0DD",
"yX c #DED9E0",
"uX c #E2DBE2",
"iX c #EEDDE2",
"pX c #F1DCE0",
"aX c #ECE4EB",
"sX c #E8E5EB",
"dX c #F2E6ED",
"fX c #F2E9EF",
"gX c #F1E2E5",
"hX c #F3EBF2",
"jX c #F9EDF4",
"kX c #F5EFF8",
"lX c #F8F0F7",
"zX c #F4F4FC",
"xX c #FBF2FA",
"cX c #FCFAFF",
"vX c #F7F8FE",
"bX c #ECE9F1",
/* pixels */
"                                            O O O . O O O O O . O O O O O O O O O O O O O @ @ @       ",
"                                            1 1 1 1 1 2 1 1 1 1 1 1 1 1 1 1 1 1 1 1 1 1 1 @ @ @       ",
"                                            N Z A A A A A A Z A A Z A A A Z A A A S Z B 6 2 @ @       ",
"                            . . . . . X $ 6 K R.Q.Q.Q.Q.Q.Q.Q.Q.Q.Q.Q.!.Q.Q.Q.Q.Q.Q.Q.E.S 5 # O       ",
"                          1 # 1 1 # # $ 1 C R.:X3XuX3X3X3X3X3X3X3X3X3X3X3X3X3X3X3XuX3X'.I.M # %       ",
"                        6 m N B B N M m C K _.3XlXxXxXkXjXjXlXhXjXlXhXlXlXhXjXjXxXxXlX2XR.B # .       ",
"                      2 Z L E.W.R.R.E.E.R._.1XsXxXxXxXlXxXlXlXlXxXlXlXlXlXlXjXxXxXcXxX2XR.B = .       ",
"                    + 5 J _.<X4X2X2X2X<X2X4XuXdXhXjXhXhXhXhXhXhXhXhXhXhXhXhXhXhXjXxXjX2XR.B 1 .       ",
"                  5 6 A E.:XaXxXjXhXhXhXhXjXhXbXhXhXfXhXhXfXhXfXhXhXhXhXbXhXdXhXjXxXhX2XR.B # O       ",
"                2 Z K R.`.3XhXxXxXxXxXlXxXjXhXhXhXbXhXbXfXhXbXhXhXaXdXhXhXfXhXbXjXxXxX2XR.B # .       ",
"              $ 6 K _.1X3XaXhXhXjXhXhXhXhXhXhXhXfXfXhXfXhXfXhXfXhXhXhXhXfXdXhXhXjXxXjX2XR.N # .       ",
"            2 8 A R.,XaXlXhXhXhXhXhXhXhXhXhXhXhXhXhXhXhXhXhXhXhXfXhXfXfXhXhXhXhXaXsX3X'.I.M : .       ",
"          6 Z J E.`.3XlXxXjXhXfXhXfXbXhXaXhXhXzXkXkXkXkXhXzXkXkXhXhXhXhXfXhXxXkXuX1X(.T.J 7 #         ",
"        # M L _.1X3XsXhXjXjXfXhXhXhXfXhXhXhXhXhXkXkXhXhXhXhXhXbXhXhXfXbXhXkXxXkX2XQ.J B 6             ",
"      . 1 M E.<XaXlXhXhXhXhXhXbXhXbXhXhXhXdXaXuXqXqXiXiXeXiXiXgXaXhXhXhXfXfXaX3X'.L m 1 +             ",
"      . # N R.2XxXxXjXhXbXhXfXhXhXfXhXhXdXiX6X%X#X#X#X#X#X#X%X6XeXhXzXzXhXyX;X_.R.S 5 .               ",
"      % # N R.2XhXvXlXfXhXfXfXhXfXhXhXhXdX9X#XD.h.h.h.h.h.h.H.#X9XfXzXxXhX<X!.J C 6                   ",
"      . # N R.<XhXxXhXhXfXhXhXfXhXfXkXkXaX6X Xi.} } } } } [ q.D.%XeXfXjXiX`.L M 2 $                   ",
"      . 1 M R.<XhXxXhXfXhXfXhXhXhXjXzXlXfX6X Xw._  . .{ ! U U 7.[.#X7X-X%X^.,.i * *                   ",
"      . # N E.<XjXxXlXfXbXhXfXhXlXxXxXvXfX6XH.w._  .O.o.Q d e ,.5.H.H.H.D.i.3.U s 0 ; @               ",
"      . = N R.<XfXxXfXfXfXfXfXfXaXaXsXbXuX5X Xi.| O.z.x./ t 3 d W [ } } [ { [ ` Q d ; @               ",
"      . = N R.2XhXcXlXhXjXlXbXyX<X'.'.'.`.@X[.h.h.M.c.l.( k q d Y U U U Q Q [ | ~ f ; @ +             ",
"      . # N R.2XlXcXhXhXlXxXbX,X!.K H H J 8.^..X+XP.V.N.x.( / l d a 0 0 0 l ( o.) l 4 @ +             ",
"      O = N R.<XfXxXhXhXlXlX3X_.K m 5 2 6 G Q.:X6XOXF.b.z.l.t./ t ; & # ; d ^ l.) R 3 @ o             ",
"        # M L `.<XwXaXsXuX2X'.~.I r ; ; q G /.4XrX=XK.n.m.m.l.^ t = @ 1 r x ( z.t.z 3 @ o             ",
"          7 S K W.'.3XsX,XQ.T.I z z l z z 9.@XyXtX=XK.n.m.m.z.^ r = - r z ( X.z.) l ; o .             ",
"            5 6 S Q.<X4X_.J V x / t.X.X.l.D.=XtXtX=XK.n.n.n.l.^ r 2 r R t.l.b.b.t.z 3 $ o             ",
"            . @ v U.1X2XQ.Z 2 t ( z.m.n.C.P.=XtXrX=XK.n.m.n.z.6.k r k ( l.A.L.F.D.0.D v 5             ",
"            X O 6 T.,X4XQ.m - q ( b.Z.Z.A.P.-XtXtX=XK.C.S.n.v.4./ R / X.b.L.P.OX.X^.~.K G v           ",
"            X @ 7 U.,X4XQ.Z - t ( z.m.m.C.P.-XtXeX=XK.b.S.n.b.z.t.x.y.z.N.K.OX-XwX4X,X`.L M 1         ",
"              # v T.'.;X!.G c x ) z.n.c.c.J.$X6X-X$XF.n.c.b.b.b.b.b.b.V.F.XX-XtXhXxXgX<XE.B : .       ",
"                6 H T.W.W.T.L 9.t.X.+.+.r.M.J.+X+XJ.V.b.b.b.b.n.C.C.G.P.OX=X8XdXxXcXvX4XW.B : .       ",
"                  7 N S I.).`..Xh.w.| | | r.i.i.k.k.b.n.n.b.b.n.n.A.P.OX-XeXgXfXxXcXzX2XR.N = .       ",
"                    1 7 K _.:X.Xh.} ' _ ' [ q.' w.a.v.n.N.b.b.b.c.C.P.-XtXbXhXbXfXfXgX1XE.M = O       ",
"                      2 H W.(.[.p.w._ _ ' _ _ _ ] s.a.A.C.b.C.S.b.B.XX6XfXzXvXhXdXrX&X[.9.u # O       ",
"                        m S G ,.3.' ] ' ' ` ` _ { s.S.C.C.b.b.c.c.V.XX-XbXzXvXhXrX&X Xj.F 9 # o       ",
"                          1 2 i U ! ' _ ` ' ' ' | s.v.S.C.b.b.S.c.A.P.-XtXbXvXgX6X[.p.~ a w $ $       ",
"                        o o $ ; d U Q ` ' ' ' ' { ..a.v.S.c.C.b.b.A.K.OX-X8X8X-X$XD.~ Y 0 ; #         ",
"                      + O O $ & ; 0 f Q ` ] ] ] ] | ..r.a.S.b.C.n.C.G.P.oXOXOXoXD.6.f e * >           ",
"                    # # @ # @ # # ; e Y ` ' ] ' ' ' ' } r.v.c.b.b.c.N.V.V.V.L.B.t.z r & @             ",
"                  4 , w , , , 2 5 4 y Y 1.` q.! ! ` ' { ..a.a.u.a.u.y.t.) ) 4.) 0.x 3 +               ",
"                < e s Y b y y y y y b @.#.%.%.1.&.q.` ] | O...i.p.5.,.R x k k d k r                   ",
"              @ , s *.&.*.$.@.b b b @.@.>.>.>.$.%.1.` '  .{ [ q.1.>.g i 3 ; > > 3 2                   ",
"            & > e Y &.-.;.e.$.$.b b >.>.>.2.2.2.2.<.~ Q ! ` ` 1.*.$.@.y 4 4 > > ; &                   ",
"          , e s Y T -.:.-.;.*.#.g i b ,.5.5.p.5.3.W f f @.T %.&.*.*.#.Y s s s s a j >                 ",
"        : , g *.&.-.-.:.:.;.&.T y 3 i ^ y.M.M.l.4.R t w y b #.*.;.;.=.=.&.=.=.&.#.a 4 @               ",
"      + : , #.e.f.g.f.f.g.g.e.$.p 4 r ^ z.m.Z.b.t.z 9 2 p b 7.7.d.g.f.f.g.g.g.g.*.b 4 @ +             ",
"      o : v >.Y.|.Y.{.*X|.|.Y.7.u 2 r / l.Z.Z.c.x.z 3 2 D U.(.}.{.|.|.Y.|.|.|.Y.Y.F 9 @ o             ",
"      O # n 8.@X7X0X0X7X0X0X>X~.D 2 r / z.m.Z.b.y.z 3 5 J (.>X9X7X7X7X7X7X0X0X7X@XP 8 @ .             ",
"      O # N E.,XfXjXhXdXjXhX3X/.G 2 t E z.n.Z.b.t.l 3 8 K '.aXjXhXaXdXfXdXhXkXiX:XL 6 @               ",
"        1 B W.4XzXcXvXzXvXvXsX).G 5 r E l.C.Z.n.t.l 3 6 K ;XzXcXxXzXzXzXzXvXxXzX1XT.m @               ",
"                                                                                                      ",
"                                                                                                      ",
"                                                                                                      "
};
