/* XPM */
static char *Walk_resized[] = {
/* columns rows colors chars-per-pixel */
"51 54 212 2 ",
"   c None",
".  c #030C0D",
"X  c #091111",
"o  c #091519",
"O  c #0A1919",
"+  c #041318",
"@  c #161C1C",
"#  c #1C1D1C",
"$  c #131716",
"%  c #201E1E",
"&  c #2A1F1F",
"*  c #1C211D",
"=  c #21221E",
"-  c #2A241F",
";  c #33241E",
":  c #251E23",
">  c #351F24",
",  c #1B2324",
"<  c #212727",
"1  c #212728",
"2  c #2A2826",
"3  c #342C22",
"4  c #382426",
"5  c #3D3128",
"6  c #2D3233",
"7  c #373C3D",
"8  c #3F2D35",
"9  c #46221D",
"0  c #54281F",
"q  c #4A2624",
"w  c #542C24",
"e  c #58272A",
"r  c #4D3826",
"t  c #553E2A",
"y  c #573929",
"u  c #432733",
"i  c #6A3629",
"p  c #7C3629",
"a  c #752B32",
"s  c #673131",
"d  c #71271B",
"f  c #5A412B",
"g  c #6C492E",
"h  c #63442C",
"j  c #614835",
"k  c #7F402A",
"l  c #633445",
"z  c #494D4E",
"x  c #4E5153",
"c  c #595C5E",
"v  c #55595B",
"b  c #4B4F50",
"n  c #744F5D",
"m  c #65605F",
"M  c #5A5D60",
"N  c #626466",
"B  c #7B6362",
"V  c #8D3929",
"C  c #903A2B",
"Z  c #95392A",
"A  c #9B2E3C",
"S  c #9A3835",
"D  c #8A393E",
"F  c #AD3A35",
"G  c #A83330",
"H  c #A1311E",
"J  c #9A4933",
"K  c #875834",
"L  c #80522F",
"P  c #AF4933",
"I  c #BB433D",
"U  c #BB4737",
"Y  c #A15A38",
"T  c #B05031",
"R  c #9F6437",
"E  c #A1663D",
"W  c #A56A3D",
"Q  c #AA6B3D",
"!  c #BC723C",
"~  c #CC4C35",
"^  c #C54B38",
"/  c #D14E36",
"(  c #D5483A",
")  c #CB533E",
"_  c #C45031",
"`  c #D45A3B",
"'  c #DD623B",
"]  c #D9623B",
"[  c #CD6339",
"{  c #E2653C",
"}  c #E76D3A",
"|  c #9C3744",
" . c #923D50",
".. c #A83B49",
"X. c #B63948",
"o. c #A93C51",
"O. c #C5374A",
"+. c #D63749",
"@. c #E53946",
"#. c #96455A",
"$. c #A5414A",
"%. c #B84A43",
"&. c #AD5155",
"*. c #8E654A",
"=. c #B66F46",
"-. c #B97341",
";. c #A76F47",
":. c #916E72",
">. c #AC6D65",
",. c #DB4846",
"<. c #D1514B",
"1. c #E14355",
"2. c #DB6643",
"3. c #C37941",
"4. c #DE7745",
"5. c #DD6955",
"6. c #CB6E58",
"7. c #EB7C43",
"8. c #E67E4C",
"9. c #E77742",
"0. c #E57E59",
"q. c #E26F5D",
"w. c #DA7A6C",
"e. c #DB7E71",
"r. c #E2746D",
"t. c #BF8863",
"y. c #D98448",
"u. c #D98A52",
"i. c #E68C4D",
"p. c #EB8D4E",
"a. c #E2874B",
"s. c #F38D4A",
"d. c #F28346",
"f. c #ED914F",
"g. c #F3924E",
"h. c #F8964E",
"j. c #EB8E54",
"k. c #E48F54",
"l. c #EE9354",
"z. c #EF9558",
"x. c #E69157",
"c. c #F19758",
"v. c #DB8376",
"b. c #C29272",
"n. c #ED9A6D",
"m. c #E38677",
"M. c #ED9567",
"N. c #F6A976",
"B. c #F9A975",
"V. c #7F7F82",
"C. c #AD7487",
"Z. c #CE7889",
"A. c #E77584",
"S. c #868689",
"D. c #8C8C90",
"F. c #AB8A8C",
"G. c #A19FA3",
"H. c #A7A4A9",
"J. c #AAA7AB",
"K. c #A8A3A8",
"L. c #ACACB0",
"P. c #B9ACB0",
"I. c #E99B83",
"U. c #E2978F",
"Y. c #DBAD92",
"T. c #EEAC82",
"R. c #E9A98A",
"E. c #F0AC81",
"W. c #F3B287",
"Q. c #F3B388",
"!. c #FAB488",
"~. c #E8A199",
"^. c #F3BA9A",
"/. c #CFB1B4",
"(. c #E7A8A4",
"). c #E8B3AD",
"_. c #EAB3B4",
"`. c #EBBBB9",
"'. c #E8B6B7",
"]. c #CB8981",
"[. c #FAC4A6",
"{. c #EEC4BC",
"}. c #F2CAB6",
"|. c #F2CBBA",
" X c #C2BEC4",
".X c #ECB5C1",
"XX c #E0B8C5",
"oX c #DCD6DC",
"OX c #D1C5C4",
"+X c #ECC7C8",
"@X c #F0CAC6",
"#X c #F3D3C3",
"$X c #F4CED0",
"%X c #ECDADE",
"&X c #E4D7DC",
"*X c #F2DBD9",
"=X c #F2E0DF",
"-X c #DDDAE1",
";X c #E6DEE5",
":X c #ECDFE3",
">X c #F5DEE2",
",X c #EBE4EA",
"<X c #EEE1E6",
"1X c #F1E1E5",
"2X c #F2E5EC",
"3X c #F2E8EE",
"4X c #F9E2E7",
"5X c #F3EBF2",
"6X c #F8EEF6",
"7X c #F3F2FC",
"8X c #FAF2FA",
"9X c #FEFAFF",
/* pixels */
"                              X X X X X X X X X X X X X X X X X O X X X                               ",
"                              , 1 1 1 1 1 1 1 1 1 1 1 1 1 1 < < , , , 1                               ",
"                            7 x c M M M c c v v c c c c c c c c M M M v 7                             ",
"                          , b V.G.J.J.H.H.H.H.H.H.H.H.H.H.H.H.H.H.L.H.B b *                           ",
"                        @ 6 N H.oX,X,X,X;X;X,X;X,X,X-X<X<X<X-X,X,X,XoXH.N 6 @                         ",
"                      7 z N D. X3X9X8X8X6X6X8X8X5X8X8X8X6X6X6X6X8X9X3X XD.N z 7                       ",
"                    , z C.G. X-X3X8X8X6X6X5X6X6X5X6X5X6X6X5X6X6X7X6X5XoX XH.C.z 1                     ",
"                  + , v G.oX3X3X3X5X3X3X5X5X5X3X5X5X5X5X5X5X5X5X5X5X3X7X,XoXG.v 1 X                   ",
"                  X < c J.,X9X8X5X3X3X5X3X5X5X5X5X5X5X3X3X5X5X3X5X5X3X8X8X,XJ.M 1 X                   ",
"                  X 1 c H.,X8X8X5X5X5X5X5X5X3X3X5X3X5X3X5X3X5X5X5X5X5X6X8X;XJ.M 1 X                   ",
"                  X 1 c K.;X8X6X5X3X3X3X5X5X3X5X3X3X5X5X5X5X5X3X5X5X5X6X8X;XJ.M 1 X                   ",
"                  . , v K.;X8X8X5X5X7X5X5X5X5X5X5X5X5X3X3X3X5X5X5X5X5X8X8X;XK.v , .                   ",
"                  . , x H.;X8X8X7X7X5X7X7X5X5X3X5X5X5X5X5X5X5X5X5X6X7X8X7X;XG.v * .                   ",
"                  @ 6 N J.;X6X3X;X2X<X<X,X3X3X5X5X5X5X5X,X5X5X5X2X1X<X2X6X;XJ.N 6 *                   ",
"                7 z N D. X;X>X@X`._._.'.+X:X3X7X7X5X5X5X5X5X7X3X%X+X`.@X<X:X XD.N z 7                 ",
"              < x S.K.OX-X,X+X(.m.r.w.v.Y.+X3X5X7X7X7X5X7X7X7X3X+X~.I.~.+X<X-XOXK.S.x <               ",
"            X 1 v H.oX5X7X=X{.v.<._ ~ <.m.).%X2X2X1X1X1X1X2X2X%X).e.6.w./.<X6X5XoXG.c , X             ",
"            X 1 v J.,X9X9X,X/.>.J H H / 5.U.).'.'._._._.`.`.`.).b.&.J >./.2X9X9X,XJ.M 1 X             ",
"            X 1 M J.,X9X9X,XP.B i d H / 2.q.v.v.e.e.e.e.r.m.m.w.&.i y B P.<X9X9X,XJ.M 1 X             ",
"            O , M H.<X8X6X&XJ.m 5 0 Z ~ ~ / ~ / ` <.` ) ) ) ) ^ J w 8 N G.%X6X8X;XK.c 1 X             ",
"            X , v H.,X1X$X).F.B h i p C Z V Z G _ / _ G Z V H V p i f *.F.).$X4X;XH.v , +             ",
"            . , M H.&X$X~.v.6.=.R K h w 9 9 0 L ! [ ! L 0 9 9 0 i L W =.6.v.~.$X;XH.v , .             ",
"            $ 6 N L.&X{.m.5.' 7.y.W f - @ * ; g Q 4.! g ; * $ - f W y.9.2.2.m.+X&XL.N 6 *             ",
"          3 r j :./.&X{.m.2.} d.i.;.f * @ ; f K [ a.3.K f - @ * f ;.i.s.} 2.m.+X&X/.:.j r ;           ",
"        = r L ;.Y.OX=X|.N.y.7.s.k.W f * 3 h R y.y.f.y.3.R g 3 * f W i.s.} p.n.+X1XOXb.;.L r <         ",
"      o = t E u.N.|.*X}.R.x.s.h.i.W f 3 f *.u.c.c.c.c.c.u.W f 3 f W u.h.s.c.T.|.*X|.Q.k.E t = X       ",
"      O = t Q f.B.[.}.^.N.c.g.g.i.! K g *.t.N.Q.Q.Q.Q.!.Q.t.*.g L ! i.h.g.c.N.[.}.[.B.c.Q y = O       ",
"      O = f Q f.B.B.N.N.M.l.g.g.f.y.! Q t.Y.|.|.|.|.|.#X}.Y.t.Q ! y.f.g.g.l.c.N.B.B.c.g.Q f = O       ",
"      o = t E y.f.k.k.f.f.f.f.g.f.f.k.x.N.|.,X,X3X1X1X3X=X}.T.x.i.i.f.f.f.f.k.k.x.l.f.y.;.f = O       ",
"        = t g R W R Q ! y.f.g.f.l.c.N.Q.[.*X3X7X7X7X7X7X5X*X}.Q.N.c.l.f.f.f.y.y.Q Q W R g r =         ",
"          5 f f f f h K ! k.h.g.z.N.^.|.*X=X5X8X7X7X7X7X5X=X*X}.^.N.g.g.h.i.-.K f f f f r q           ",
"            = < * * 3 f Q i.g.f.z.N.}.=X5X5X3X3X,X=X,X3X5X5X5X=X|.N.c.g.h.y.Q h - * * * <             ",
"              o o + @ y Y 4.d.s.z.Q.#X3X7X7X3X:X+X`.+X%X5X7X7X5X#XW.z.p.s.9.Y y @ + + o               ",
"                + o # w J ] } d.z.E.#X5X7X7X3X+XU.].U.+X5X7X7X5X#XW.l.d.} ` J w @ + o                 ",
"                  O # q V U ' 9.j.T.}.1X5X5X:X_.e.5.e._.%X5X5X1X}.T.j.9.' _ V 0 # O                   ",
"                  O @ ; i V T [ 8.n.^.|.#X#X}.R.0.5.0.R.}.#X#X|.^.n.4.[ P V w > @ O                   ",
"                  o $ # - q p T ] a.n.E.Q.Q.N.n.k.8.j.n.E.Q.Q.N.n.0.2.P p 0 & % @ O                   ",
"                  # : # # ; i Z U 2.8.j.z.z.z.j.p.p.s.j.z.z.c.l.8.2.^ J w - % % # %                   ",
"                > q e e q q a S P <.] } 9.7.9.7.7.7.7.9.9.9.9.} ' ) P S a e q e e q >                 ",
"              @ u a A A | A | | $.%.2.` ] ' ' ' ' 2.{ ' ` { { ` <.%.$.| | A A | | a q @               ",
"            $ & e A +.+.+.+.O.o.o.o.%.^ / ~ ^ ~ ~ ~ ^ ^ / / ( ) %.$.o.o.O.+.+.+.O.A e & $             ",
"          ; 9 q V F +.@.@.@.+.X.o.o.X.I I I P F Z J S F I I I F X.o.o.X.+.@.@.@.+.G p e q &           ",
"        # q i V G I ( @.@.@.+.+.O.o.......$.$. .i e s  .$.$.......X.O.O.+.@.@.@.( ^ G C i q %         ",
"      O = q J U ( / ( ( 1.1.1.1.1.O.&.#.#.#. .s 4 4 4 s  .#.#.#.o.<.1.1.1.1.+.,.( ( / _ C q % O       ",
"      O % w J ] { { 2.5.r.r.A.A.A.Z.Z.C.:.n l u : @ : u l n :.C.Z.Z.A.A.A.A.r.5.2.{ { ] J w = O       ",
"      o = y Y 9.7.9.8.M.~._..X.X.X.XXX/.C.n 8 : # @ # : 8 n C. XXXXX.X.X.X_.~.M.8.7.7.4.Y t = O       ",
"      o = t E a.s.s.l.T.`.>X2X2X<X2X5X-XH.M 2 $ $ @ o $ 1 N K.&X3X2X4X2X,X=X{.N.l.s.g.a.E f = X       ",
"        = t Q j.h.h.c.W.#X5X7X7X7X8X9X,XL.M , X o @ o X , M L.,X9X8X7X7X7X5X#XW.c.h.h.i.W f =         ",
"                                                                                                      ",
"                                                                                                      ",
"                                                                                                      ",
"                                                                                                      ",
"                                                                                                      ",
"                                                                                                      "
};
