/* XPM */
static char *Walk_3__resized[] = {
/* columns rows colors chars-per-pixel */
"51 58 182 2 ",
"   c None",
".  c #040D0C",
"X  c #000606",
"o  c #08100F",
"O  c #091111",
"+  c #0A191A",
"@  c #041213",
"#  c #101717",
"$  c #121A19",
"%  c #1B1C1C",
"&  c #2E1E19",
"*  c #211F1C",
"=  c #29211E",
"-  c #31231E",
";  c #281D20",
":  c #361F23",
">  c #1B2222",
",  c #202627",
"<  c #212728",
"1  c #282D2E",
"2  c #232929",
"3  c #3D2521",
"4  c #322228",
"5  c #2C3132",
"6  c #313637",
"7  c #393D3E",
"8  c #373C3D",
"9  c #44251E",
"0  c #52241A",
"q  c #432326",
"w  c #452823",
"e  c #492829",
"r  c #5C2928",
"t  c #513338",
"y  c #622F25",
"u  c #732D2D",
"i  c #753429",
"p  c #753225",
"a  c #632D3A",
"s  c #6E2731",
"d  c #7A2B37",
"f  c #6F3433",
"g  c #7E394D",
"h  c #3D4142",
"j  c #414546",
"k  c #464A4B",
"l  c #4B4B4D",
"z  c #434748",
"x  c #4C4F51",
"c  c #4E5153",
"v  c #515456",
"b  c #535658",
"n  c #585B5D",
"m  c #5F6163",
"M  c #646668",
"N  c #67686B",
"B  c #6B6C6F",
"V  c #626466",
"C  c #6C6E71",
"Z  c #717275",
"A  c #797A7D",
"S  c #983835",
"D  c #8E3332",
"F  c #A23E2F",
"G  c #AD373A",
"H  c #B23B36",
"J  c #BD3C3A",
"K  c #90473A",
"L  c #AD422F",
"P  c #A94636",
"I  c #B24330",
"U  c #B94232",
"Y  c #D3472F",
"T  c #D6482F",
"R  c #CD4A34",
"E  c #C94A38",
"W  c #C74639",
"Q  c #D44B33",
"!  c #DA4B31",
"~  c #D1453C",
"^  c #D2533D",
"/  c #84394C",
"(  c #9E3A45",
")  c #943A4C",
"_  c #98374A",
"`  c #8C3A54",
"'  c #9A3C52",
"]  c #943E53",
"[  c #AB3A46",
"{  c #B43848",
"}  c #B33D51",
"|  c #CD3B4A",
" . c #984747",
".. c #96495F",
"X. c #99495D",
"o. c #AA454B",
"O. c #B04C50",
"+. c #B44542",
"@. c #8D625C",
"#. c #BD695B",
"$. c #944860",
"%. c #BA6862",
"&. c #B26D7B",
"*. c #C04C42",
"=. c #CA4246",
"-. c #D54043",
";. c #C25A56",
":. c #C6574A",
">. c #CC6352",
",. c #C86456",
"<. c #D66553",
"1. c #D86653",
"2. c #D77468",
"3. c #D27770",
"4. c #E07D6E",
"5. c #DC877A",
"6. c #E2877B",
"7. c #AE7488",
"8. c #AD7386",
"9. c #B07488",
"0. c #828285",
"q. c #868589",
"w. c #88878B",
"e. c #87898C",
"r. c #898A8E",
"t. c #938181",
"y. c #8F8E92",
"u. c #929195",
"i. c #979599",
"p. c #9B9A9E",
"a. c #A19EA2",
"s. c #ADA9AE",
"d. c #A6A3A7",
"f. c #AEABB0",
"g. c #B2AEB3",
"h. c #BBB7BC",
"j. c #B4B2B7",
"k. c #CD8783",
"l. c #DC8D83",
"z. c #DD9D99",
"x. c #D3938B",
"c. c #E39489",
"v. c #E09994",
"b. c #CD9CA5",
"n. c #CEACBA",
"m. c #D1ADBC",
"M. c #D1B4B5",
"N. c #EBACA5",
"B. c #E6B3AE",
"V. c #E7B9B7",
"C. c #EAB5B2",
"Z. c #BDBAC0",
"A. c #C3BEC4",
"S. c #C9C4CA",
"D. c #CEC8CE",
"F. c #D3CDD4",
"G. c #D7D1D7",
"H. c #D9D4DA",
"J. c #DAD3DA",
"K. c #EBC5C4",
"L. c #EECAC9",
"P. c #E3C3C7",
"I. c #E4D3DC",
"U. c #EED7DA",
"Y. c #EED8DC",
"T. c #F0D2D4",
"R. c #F5C9C8",
"E. c #DFDDE4",
"W. c #E4DDE4",
"Q. c #F2DEE1",
"!. c #E7E0E6",
"~. c #E8E0E7",
"^. c #EBE4EA",
"/. c #F1E5EB",
"(. c #F0E8EF",
"). c #F8E1E5",
"_. c #F2EAF1",
"`. c #F8EFF6",
"'. c #F9F0F7",
"]. c #F3F1F9",
"[. c #FBF3FA",
"{. c #FFFCFF",
/* pixels */
"                            o o o o o O o O o o o O o o o o o O o O o o o                             ",
"                            > > > > > > > > > > > > > > > > > > > > > > >                             ",
"                          8 j k k z z k k z z k z k z k k z k z k z k z j 8                           ",
"                        5 n Z q.w.w.q.q.q.q.q.0.q.q.q.q.q.q.q.q.q.w.w.0.Z n 5                         ",
"                      $ 8 C a.A.D.D.S.S.S.S.S.S.S.S.S.S.S.S.S.S.S.D.D.A.d.C 8 $                       ",
"                    2 6 v w.A.^.`._.(._.(.^.(._.^.(.(.(.(.(.(.^.(.`.`.^.A.w.v 6 2                     ",
"                  8 v N 0.s.J.`.[.[.[.'.'.'.'.'.[.[.[.'.'.'.[.'.[.[.[.`.J.s.0.N v 7                   ",
"                < k A a.h.F.~._.'.'.'.`.`.`.`.`._.`._.`.`.`.`.`.`.'.'._.W.F.h.a.A k 2                 ",
"              O 2 v y.D.^._._.(._._._._._.(._._._._._._._.(._._._._._._.(._.^.S.y.v 2 O               ",
"              O 2 b i.J.[.[.`._._.(._._._._._.(._._.(._._._._._._._.(._.`.[.'.J.i.v 2 O               ",
"              O < v i.J.'.[.`._._.(._.(._._._._._._.(._._.(.(._._._._._.`.[.'.J.i.v < O               ",
"              O < v i.F.`.'._._._._._._._.(._._._._._._._._._._._._._._.`.'.`.F.i.v 2 O               ",
"              O < v i.F._.'.`._._._._._.(._._.(.(._._._._.(._._.(._._./.`.[._.G.i.v < o               ",
"              . > l u.F._.'._._._.(.(._._._._._._._._.(._._._._._._._._._.[._.F.y.x > .               ",
"              . > c u.F.`.[.`._._._._._._._._._._._._._.(._._.(._._._._.`.'._.F.u.c > .               ",
"              > 6 m p.G._.'._._._.(._._.(._._._.(._._._._._._._._._._._._.'._.G.p.m 6 >               ",
"            h h N q.g.W._.'._._._._._._._._._._._._._._._._._._._._._._.`.`._.I.j.q.M c h             ",
"        > 6 n 8.a.h.F.W._._._._.(._._.(.(._._.(.(._.(._._.(._._.(._._./._._._.~.F.h.d.0.n 6 $         ",
"        + 6 N d.F.W.(.(._._._._._._._._._._._._._._.(._.(._.(._._._._._._._._.(.(.~.F.d.N 6 $         ",
"      @ + 6 C g.^.[.[._._._._.(._.(._._._.(._._._._._._._._._._._.(._._._._._._.'.'.!.f.C 6 # .       ",
"      o # 6 C g.^.[.[.`._.(._._._.(._._.(._._.(._._._.(._.(._._.(._._.(._._._._.[.{.^.j.C 6 $ o       ",
"      . $ 6 B g.W.[.'._._._._._._._._._._._._._.(._._._._._._._._._._._.(._._._.'.'.W.g.C 6 $ .       ",
"      o # 6 B g.W.'.'.`._.(.(._._._._.(._._._._._._._._._._._.(._._._._._._._._.'.'.W.g.B 6 # .       ",
"      X O 5 N g.W.'.'._._._._._._.(._._.(._._.(._._._._.(._._._.(._._.(._._._._.'.'.W.g.N 5 O X       ",
"        O 5 N s.W.'.'._._._._._._._._.(.(._._._.(._._._._._._._._._._._._._._._.'.'.W.s.N 5 O         ",
"      # > h Z g.W.`.'._._._.(._.(._._._._._./._._._._.(._.(._._._.(.(._.(._._._.'.'.!.g.Z 8 > $       ",
"      7 l V y.A.Q.`.`._._._._._._._._._._._._._._._._._._.(.(._._._._._._._.(._.`.`.^.A.y.V l 8       ",
"o > h V 0.p.h.G./._.`._._._._._._._._._.(._.(._._.(._._._._._._._._.(._._._._._.`._.^.G.h.a.0.M h > o ",
"O > z A g.G.W.^.(._._._._._._._._._._._._._.(._.(._._._._.(._._._._._._._._.(._._._.(.^.W.G.g.A z > O ",
"O > k w.S._.[.`._._._._._._.(._.(._._.(._._._._._._._.(._._._._.(._._.(.(._._._._._._.`.[._.S.q.k > o ",
"o > k r.F.[.{.{.`.`._._._.(.(._._._._._.(._._._._._._._._._._.(._._._._._._._._._.`.'.{.{.[.F.r.k > o ",
"o > k w.F.'.{.[.`.`._._._._._._._.(._._._._._.(._._._._.(._._._._.(._._._.(._._.`.`.'.[.{.[.D.e.k > O ",
"O > z 0.A.W.W.W.W.~.^.(.(.(._.(._._._._._._._._._._._._._.(._._.(._._.(._._._.(.^.!.W.!.!.W.Z.0.k > @ ",
"o > j Z i.d.s.s.g.A.H.^.`.`._._.(._._.(.(._.(._._.(.(._._._._._._._._._._.`.].^.G.A.g.s.s.d.i.Z z > o ",
"    8 v V N V N Z y.Z.W.].].].(._._._._._._.(._._._._._.(._._.(._._._._._.[.].W.h.y.Z M M M m v 7     ",
"      5 5 5 1 1 8 M a.G._.`.`._.(._._._._._._._._.(._._._._._._.(._._.(._.'.(.G.d.V 7 1 1 5 5 5       ",
"        # # O O > k 0.n.T.)./._._._._._._.(._._._.(.(._._._._._._._.`._./.).T.M.t.l > O O # #         ",
"          . . @ % t @.5.N.R.Q.`.].]._._._._._.(._._._._.(._.(._._.`.]._.Q.R.N.k.@.t % . . .           ",
"            @ O % w K #.6.N.T._.].]._._._.(._._._._.(._._._._._._.`.].(.T.N.6.#.K w % + O             ",
"              + * 9 p P ,.l.V.U.^.(.(._._._._.(._._._._._._._._.(.(.^.Y.V.l.>.P i 3 * +               ",
"              + $ - 0 p K %.x.C.L.Y._.`.].`.`._.]._._.`._.`.].].(.Q.L.B.x.%.K p 0 = $ +               ",
"              + $ % & 9 i K #.5.N.L./.].].].`.`.].].].`.].].].]./.L.N.5.,.K f w = % $ +               ",
"              % % % % = w i P >.6.C.Y._.(././.^.^./.^./.^./.(.(.Y.C.6.>.P i q ; % % % %               ",
"            : q w 3 4 4 e i P +.2.z.V.K.L.P.K.K.K.K.K.K.K.K.L.L.V.v.2.+.P f e : - 3 q q :             ",
"          ; e s d d a t a f _ o.;.3.l.c.c.c.c.c.c.c.c.c.c.c.c.c.l.3.;.o._ f a t s s D s e ;           ",
"        $ & r D { { _ / g g ` o.O.;.<.<.1.<.<.<.<.<.<.<.<.1.1.1.<.;.O. .` ` g / _ [ { D s ; $         ",
"      ; & 9 u G | | } ' ` ` $.)  .+.W E E E E W W E E E E E E E U +.o.` ` ` ` ' } | | H u w = =       ",
"    4 w r p S J | | } ' ` ` ` / ) G G H H H H H H H H H H H H H G [ _ ) ` ` ` ' } | | J S y r w -     ",
"+ % 3 y D L L E ~ =.o.' ` ` ` ` ) _ ( [ ( ( ( ( ( ( ( ( ( ( ( ( ( ) ) ` ` ` ` ' { =.~ W U F D y - % + ",
"+ % - i L R Q Y R *.o.X...$.$.......$.X.....X.......X.X.X.X.X...X.$.X.$.$.$...X.O.*.R Q Y E L i - % + ",
"+ % 3 i I Q ! Q R :.%.&.8.8.8.9.8.9.9.8.7.7.8.7.7.7.7.7.7.7.7.7.9.9.9.9.8.8.8.&.%.:.Q ! ! Q I i 9 % + ",
"+ % 3 i I Q ! T ^ <.k.b.n.m.m.m.m.m.m.m.n.m.m.m.m.m.n.m.m.m.m.m.m.m.m.m.m.m.n.b.k.>.^ T ! Q I i 9 > + ",
"+ % - i I R T T ^ 2.v.P.I.W.I.I.I.I.I.I.I.I.I.I.J.I.I.I.I.I.I.I.I.J.I.W.I.W.I.P.z.2.^ T T R I i - % + ",
"+ * w i I R T Y ^ 2.N.U.^.E.G.S.S.S.S.S.S.S.S.S.S.D.D.S.S.S.S.S.S.S.S.S.G.E.^.U.N.2.:.T T Q L i 9 % + ",
"+ % 3 i I R T Y ^ 5.  /.H.j.p.r.r.e.r.r.r.y.r.r.r.r.r.r.r.r.r.r.r.r.e.r.p.j.H.).  4.^ Y T Q L i w % + ",
"                          C b l k k k k k k k k k k l k l k k k k k k k b C                           ",
"                            > > > > > > > > > > > > > > > > > > > > > > >                             ",
"                            o @ @ @ o o o o o o o o o o O o o o O o O o .                             "
};
